<?xml version="1.0" encoding="utf-8"?>
<!-- Generator: Adobe Illustrator 28.0.0, SVG Export Plug-In . SVG Version: 6.00 Build 0)  -->
<svg version="1.1" xmlns="http://www.w3.org/2000/svg" xmlns:xlink="http://www.w3.org/1999/xlink" x="0px" y="0px"
	 viewBox="0 0 841.89 595.28" style="enable-background:new 0 0 841.89 595.28;" xml:space="preserve">
<style type="text/css">
	.st0{fill:#DB5756;}
	.st1{opacity:0.69;fill:#E53019;}
	.st2{fill:#F07E07;stroke:#F07E07;stroke-width:4;stroke-miterlimit:10;}
	.st3{fill:#C8D40B;stroke:#C8D40E;stroke-width:4;stroke-miterlimit:10;}
	.st4{fill:#FFD504;stroke:#FFD504;stroke-width:4;stroke-miterlimit:10;}
	.st5{opacity:0.85;fill:#464B9A;}
	.st6{fill:#C8D40B;}
	.st7{fill:#FFD504;}
	.st8{fill:#FFFFFF;}
	.st9{fill:#F07E07;}
</style>
<g id="Ebene_2">
</g>
<g id="Ebene_1">
	<g>
		<path class="st0" d="M192.49,241.99c0,0,4.73-5.09,6.79-4.78c3.59,0.53,1.87,17.85,1.13,30.43c-0.82,13.96,0.59,4.76,0,39.99
			c-0.21,12.38-0.5,28.44-1.5,48.52c-0.31,6.22-0.63,11.66-0.91,15.97c-0.22,3.44-0.39,5.96-0.42,6.37
			c-0.41,5.99-0.98,20.89-1.75,56.87c-2.21,6.21-3.58,8.01-4.45,7.93c-3.16-0.3,0.41-25.25,0.13-63.52
			c-0.26-36.09-0.39-54.14-0.73-62.15c-0.44-10.51-1.86-40.07,0-58.68C190.87,258.17,192.49,241.99,192.49,241.99z"/>
		<path class="st0" d="M631.43,443.34c1.16,3.4,3.99,9.74,5.98,9.56c2.82-0.27,1.7-13.43,2.26-46.49c0.28-16.5,0.67-19.61,0.57-32.8
			c-0.11-13.14-0.55-16.95-0.88-28.65c-0.73-25.45-0.37-46,0-65.18c0.2-10.74,0.47-19.65,0.68-25.83c-1.74-2.32-3.47-4.65-5.21-6.97
			c-2.31,127.68-3.76,176.75-4.6,181.41C630.08,429.24,628.79,435.59,631.43,443.34z"/>
		<path class="st0" d="M195.6,446.51c-2.47,2.57-1.76,6.74,1.48,8.84c6.04,3.92,20.12,0.18,23.4-0.61
			c18.01-4.38,49.25-2.3,188.03-1.88c49.97,0.15,124-0.02,227.5-1.48c-4.17-1.64-8.33-3.29-12.5-4.93
			c-60.52,1.45-110.28,1.26-145.76,0.77c-58.65-0.81-138.2-3.29-138.21-3.22v0c-39.57-2.31-79.97,2.88-119.35-0.43
			C215.03,443.14,200.17,441.75,195.6,446.51z"/>
		<path class="st0" d="M463.91,116.81c0.51,0.22,5.6,2.47,5.47,5.21c-0.21,4.42-13.82,6.93-20.18,8.37
			c-20.76,4.7-28.76,12.56-53.21,24.91c-49.55,25.02-102.58,36.1-198.68,78.11c-15.83,6.92-28.55,12.81-36.23,16.42
			c-5.66-0.94-11.32-1.89-16.98-2.83c7.72-2.79,17.92-6.56,29.84-11.22c82.7-32.32,220.88-86.33,260.39-111.58
			C438.41,121.6,452.81,112.03,463.91,116.81z"/>
		<path class="st0" d="M439.52,141.86c1.04-4.08,6.81-7.54,11.27-6.65c6.29,1.24,9.17,10.92,9.67,12.32
			c4.12,11.38,56.06,40.66,236.6,112.64c-5.28,0.38-10.57,0.75-15.85,1.13c-53.12-20.38-178.78-69.43-217.92-94.53
			C454.77,161.3,437.4,150.16,439.52,141.86z"/>
		<path class="st1" d="M556.58,483.17"/>
		<path class="st2" d="M261.65,209.77c-3.23-1.24-9.34,4.17-11.04,5.67c-4.21,3.73-6.18,7.18-7.98,10.17
			c-9.51,15.81-12.33,15.55-15.6,24.69c-1.78,4.99-2.31,8.9-2.74,12.18c-1.32,10.18,0.04,18.15,0.82,21.83
			c2.51,11.69,5.44,8.76,10.28,24.29c1.42,4.57,2.69,9.71,8.1,14.12c0.87,0.71,2.47,1.91,7.18,4.11c5.3,2.47,14.15,6.52,27.27,8.53
			c8.06,1.24,13.11,2.01,19.85,1.08c16.09-2.22,26.5-12.02,29.55-14.89c7.01-6.6,9.94-13.47,15.68-27.23
			c4.62-11.07,4.96-16.3,5.03-18.39c0.21-6.44-1.31-11.03-3.26-16.78c-5.2-15.28-13.62-25.51-16.24-28.57
			c-6.99-8.16-11.27-13.16-19.86-16.78c-12.04-5.07-25.76-4.57-25.88-4.1c-0.04,0.17,1.61,0.63,9.21,1.92c-3-0.15-6-0.31-9-0.46
			c3.01,0.72,6.01,1.43,9.02,2.15c-1.62,0.13-3.25,0.26-4.87,0.38c-1.28-0.14-2.56-0.27-3.84-0.41c3.3,0.35,6.59,0.7,9.89,1.05
			c-3.23,0.15-6.46,0.29-9.69,0.44c10.4,0.15,17.57,2.4,21.62,4.02c12.82,5.11,18.78,14.15,30.7,32.23c3.05,4.63,5.9,9.53,6.5,16.2
			c0.35,3.89-0.21,6.74-1.31,11.99c-3.25,15.5-4.87,23.25-5.46,24.52c-1.66,3.63-8.44,16.89-24.75,24.17
			c-21.34,9.53-42.5,2.39-45.62,1.28c-8.5-3.03-13.9-7.4-16.01-9.15c-7.71-6.36-11.06-13.04-13.63-18.15
			c-1.83-3.64-3.21-8.38-5.99-17.85c-1.65-5.63-2.37-8.86-2.06-13.05c0.21-2.9,0.64-2.51,1.31-7.82c0.72-5.7,0.39-7.43,1.46-11.96
			c0.52-2.2,0.91-3.89,1.9-5.99c1.88-3.99,4.27-6.01,7.55-9.45c9.97-10.45,8.12-12.99,14-15.69c4.37-2.01,7.81-1.71,9.33-4.3
			C264.31,213.63,263.6,210.52,261.65,209.77z"/>
		<path class="st3" d="M415.04,176.99c-2.83-1.94-10.1,1.6-12.13,2.59c-5.01,2.44-7.77,5.17-10.25,7.52
			c-13.11,12.4-15.79,11.46-21.21,19.17c-2.95,4.21-4.43,7.72-5.64,10.67c-3.77,9.15-4.41,16.9-4.54,20.52
			c-0.42,11.49,3.15,9.48,4.05,25.12c0.27,4.6,0.24,9.69,4.42,15.11c0.67,0.87,1.94,2.38,5.98,5.58c4.54,3.59,12.16,9.52,24.43,14.6
			c7.54,3.12,12.25,5.07,19.04,5.85c16.19,1.86,28.71-4.72,32.38-6.65c8.43-4.43,12.96-10.11,21.9-21.52
			c7.2-9.17,8.81-13.96,9.39-15.89c1.78-5.94,1.43-10.58,0.93-16.42c-1.32-15.49-7-27.06-8.8-30.55c-4.8-9.3-7.74-15-15.21-20.46
			c-10.47-7.66-23.93-10.54-24.16-10.13c-0.08,0.15,1.41,0.98,8.48,4.03c-2.88-0.88-5.76-1.75-8.64-2.63c2.75,1.4,5.5,2.8,8.25,4.2
			c-1.61-0.28-3.22-0.55-4.83-0.83c-1.21-0.44-2.43-0.88-3.64-1.32c3.12,1.13,6.24,2.26,9.36,3.39c-3.18-0.65-6.35-1.3-9.53-1.95
			c10.07,2.68,16.49,6.53,20.04,9.02c11.22,7.88,14.8,17.75,21.96,37.49c1.84,5.06,3.41,10.31,2.36,16.67
			c-0.61,3.7-1.85,6.22-4.21,10.84c-6.95,13.63-10.43,20.45-11.3,21.49c-2.5,2.97-12.34,13.66-29.98,16.46
			c-23.08,3.66-41.91-8.15-44.67-9.95c-7.52-4.89-11.7-10.28-13.33-12.42c-5.94-7.8-7.57-14.83-8.81-20.22
			c-0.89-3.83-1.08-8.58-1.45-18.08c-0.22-5.64-0.13-8.82,1.19-12.65c0.92-2.65,1.24-2.18,3.19-6.96c2.1-5.13,2.2-6.82,4.34-10.77
			c1.04-1.92,1.84-3.4,3.31-5.11c2.8-3.25,5.62-4.55,9.65-6.95c12.25-7.29,11.08-10.11,17.45-11.19c4.74-0.8,8.01,0.31,10.12-1.73
			C416.69,181.23,416.76,178.16,415.04,176.99z"/>
		<path class="st4" d="M550.67,217.69c-2.52-2.23-10.03,0.24-12.12,0.93c-5.18,1.7-8.2,3.97-10.9,5.91
			c-14.29,10.23-16.78,8.99-23,15.7c-3.39,3.66-5.26,6.85-6.81,9.52c-4.8,8.31-6.37,15.67-6.95,19.13
			c-1.83,10.99,1.9,9.51,0.85,24.65c-0.31,4.45-0.96,9.34,2.44,15.09c0.55,0.93,1.59,2.54,5.13,6.13
			c3.98,4.03,10.66,10.71,21.98,17.15c6.95,3.96,11.3,6.44,17.81,8.06c15.53,3.86,28.52-0.85,32.33-2.24
			c8.75-3.18,13.86-8.05,23.97-17.86c8.14-7.89,10.29-12.28,11.09-14.06c2.46-5.48,2.69-9.98,2.93-15.65
			c0.63-15.05-3.48-26.9-4.8-30.47c-3.53-9.55-5.69-15.4-12.28-21.6c-9.24-8.7-21.99-13.19-22.27-12.83
			c-0.1,0.13,1.25,1.12,7.76,4.96c-2.7-1.21-5.39-2.42-8.09-3.63c2.5,1.7,5.01,3.39,7.51,5.09c-1.53-0.47-3.07-0.95-4.6-1.42
			c-1.13-0.58-2.25-1.16-3.38-1.73c2.9,1.49,5.79,2.97,8.69,4.46c-3.01-1.03-6.02-2.07-9.04-3.1c9.47,3.86,15.25,8.38,18.39,11.23
			c9.95,9.01,12.22,18.95,16.76,38.83c1.16,5.09,2.05,10.34,0.25,16.31c-1.05,3.48-2.57,5.74-5.43,9.87
			c-8.44,12.2-12.67,18.31-13.65,19.2c-2.8,2.53-13.69,11.54-31.21,11.97c-22.92,0.56-39.79-13.2-42.26-15.28
			c-6.72-5.66-10.13-11.38-11.45-13.64c-4.82-8.26-5.54-15.22-6.09-20.55c-0.39-3.8,0.01-8.38,0.81-17.55
			c0.48-5.45,0.96-8.49,2.72-12c1.22-2.42,1.47-1.93,3.96-6.28c2.67-4.66,2.98-6.27,5.55-9.79c1.25-1.71,2.21-3.03,3.86-4.49
			c3.13-2.77,6.03-3.65,10.25-5.44c12.82-5.43,12.03-8.29,18.37-8.51c4.72-0.16,7.76,1.32,10.06-0.36
			C551.74,221.98,552.19,219.04,550.67,217.69z"/>
		<path class="st5" d="M186.58,443.47c-2.1,2.85-6.19,4.72-8,4.36c-5.58-1.11-7.25-26.87,7.2-127.04c0.65,51.69,0.8,73.55,0.8,83.49
			c0,22.96-0.8,21.13,0,24.68C187.7,433.88,189.68,439.26,186.58,443.47z"/>
		<path class="st5" d="M232.9,458.27c0.11-4.88,417.64-1.7,417.68,3.04c0.02,2.35-102.41,5.53-182.88,5.61
			C353.06,467.03,232.84,460.89,232.9,458.27z"/>
		<path class="st6" d="M490.43,328.53c-4.99-4.05-39.41-31.12-81.33-21.33c-43.7,10.2-71.31,54.77-66.67,61.33
			c1.36,1.92,6.26,1.68,9.33,0c4.91-2.68,4.76-8.79,8-16c2.73-6.07,6.27-9.38,13.33-16c12.9-12.08,36.73-22.32,62.67-22.67
			C461.53,313.52,481.01,323.04,490.43,328.53z"/>
		<path class="st5" d="M652.66,454.99c-0.55,1.18-2.56,5.45-4.4,5.19c-9.05-1.29-4.34-110.23-2-110.24
			c0.73-0.01,1.37,10.51,1.6,14.27c0.82,13.35-0.28,19.01-0.4,31.56c-0.13,14.22-0.2,21.33,1.6,29.83
			C651.8,438.55,656.57,446.66,652.66,454.99z"/>
		<path class="st7" d="M594.89,363.27c-5.78-4.87-36.29-29.62-77.33-24c-6.64,0.91-31.08,4.55-50.67,24
			c-11.19,11.11-16.22,22.8-21.33,34.67c-9.59,22.27-12.94,44.7-10.92,45.35c1.21,0.38,3.94-7.06,13.58-26.68
			c9.05-18.41,13.58-27.62,17.43-33.55c14.93-23,44.31-36.85,69.24-38.45C569.42,342.39,595.26,363.58,594.89,363.27z"/>
		<ellipse class="st8" cx="318.4" cy="379.85" rx="52.89" ry="35.54"/>
		<path class="st9" d="M260.79,357.12c-1.33-2.04,20.85-28.47,49.58-27.03c11.93,0.6,20.26,5.74,30.57,12.2
			c13.32,8.35,21.55,18.8,30.17,29.55c4.47,5.57,9.04,11.9,13.49,19.24c11.31,18.66,12.76,28.85,13.1,32.01
			c0.47,4.38,0.85,14.89-1.09,15.24c-2.79,0.51-6.02-20.67-21.28-46.93c-5.24-9.01-10.2-17.41-19.21-26.21
			c-6.08-5.94-22.78-22.58-44.82-25.02C282.97,337.03,262.04,359.05,260.79,357.12z"/>
	</g>
</g>
</svg>
